####
#
# OBJ File Generated by Meshlab
#
####
# Object sphere2.obj
#
# Vertices: 32
# Faces: 60
#
####
mtllib ./sphere2.obj.mtl

vn 0.0000000 0.3247500 0.0000000
v 0.0000000 0.5000000 -0.0000000
vn 1.9929527 2.0722415 0.3779578
v 0.2500000 0.4330000 -0.0000000
vn 4.4947596 2.6421819 0.1090993
v 0.4330000 0.2500000 -0.0000000
vn 5.0616350 0.0000000 0.0000000
v 0.5000000 0.0000000 0.0000000
vn 4.4947591 -2.6421816 -0.1090993
v 0.4330000 -0.2500000 0.0000000
vn 1.9929529 -2.0722415 -0.3779578
v 0.2500000 -0.4330000 0.0000000
vn 0.0000000 -0.3247500 0.0000000
v 0.0000000 -0.5000000 0.0000000
vn 0.6691527 2.0723033 1.9148698
v 0.1250000 0.4330000 0.2165000
vn 2.1529002 2.6420813 3.9471216
v 0.2165000 0.2500000 0.3750000
vn 2.5308175 0.0000657 4.3835549
v 0.2500000 0.0000000 0.4330000
vn 2.3418589 -2.6421776 3.8379869
v 0.2165000 -0.2500000 0.3750000
vn 1.3238000 -2.0722725 1.5369340
v 0.1250000 -0.4330000 0.2165000
vn -1.3238000 2.0722723 1.5369341
v -0.1250000 0.4330000 0.2165000
vn -2.3418589 2.6421778 3.8379869
v -0.2165000 0.2500000 0.3750000
vn -2.5308175 -0.0000657 4.3835554
v -0.2500000 0.0000000 0.4330000
vn -2.1529005 -2.6420810 3.9471221
v -0.2165000 -0.2500000 0.3750000
vn -0.6691528 -2.0723033 1.9148697
v -0.1250000 -0.4330000 0.2165000
vn -1.9929527 2.0722415 -0.3779578
v -0.2500000 0.4330000 -0.0000000
vn -4.4947591 2.6421819 -0.1090993
v -0.4330000 0.2500000 -0.0000000
vn -5.0616350 0.0000000 0.0000000
v -0.5000000 0.0000000 0.0000000
vn -4.4947591 -2.6421816 0.1090994
v -0.4330000 -0.2500000 0.0000000
vn -1.9929528 -2.0722415 0.3779578
v -0.2500000 -0.4330000 0.0000000
vn -0.6691527 2.0723033 -1.9148698
v -0.1250000 0.4330000 -0.2165000
vn -2.1529002 2.6420813 -3.9471216
v -0.2165000 0.2500000 -0.3750000
vn -2.5308175 0.0000657 -4.3835549
v -0.2500000 -0.0000000 -0.4330000
vn -2.3418589 -2.6421776 -3.8379869
v -0.2165000 -0.2500000 -0.3750000
vn -1.3238000 -2.0722725 -1.5369340
v -0.1250000 -0.4330000 -0.2165000
vn 1.3238000 2.0722723 -1.5369341
v 0.1250000 0.4330000 -0.2165000
vn 2.3418589 2.6421778 -3.8379869
v 0.2165000 0.2500000 -0.3750000
vn 2.5308175 -0.0000657 -4.3835554
v 0.2500000 -0.0000000 -0.4330000
vn 2.1529005 -2.6420810 -3.9471221
v 0.2165000 -0.2500000 -0.3750000
vn 0.6691528 -2.0723033 -1.9148697
v 0.1250000 -0.4330000 -0.2165000
# 32 vertices, 0 vertices normals


usemtl material_0
vt 0.0000000 0.0000000
vt 0.1666670 0.1666670
vt 0.0000000 0.1666670
f 1/1/1 8/2/8 2/3/2
vt 0.1666670 0.3333330
f 2/3/2 8/2/8 9/4/9
vt 0.0000000 0.3333330
f 2/3/2 9/4/9 3/5/3
vt 0.1666670 0.5000000
f 3/5/3 9/4/9 10/6/10
vt 0.0000000 0.5000000
f 3/5/3 10/6/10 4/7/4
vt 0.1666670 0.6666670
f 4/7/4 10/6/10 11/8/11
vt 0.0000000 0.6666670
f 4/7/4 11/8/11 5/9/5
vt 0.1666670 0.8333330
f 5/9/5 11/8/11 12/10/12
vt 0.0000000 0.8333330
f 5/9/5 12/10/12 6/11/6
vt 0.1666670 1.0000000
f 6/11/6 12/10/12 7/12/7
vt 0.1666670 0.0000000
vt 0.3333330 0.1666670
f 1/13/1 13/14/13 8/2/8
vt 0.3333330 0.3333330
f 8/2/8 13/14/13 14/15/14
f 8/2/8 14/15/14 9/4/9
vt 0.3333330 0.5000000
f 9/4/9 14/15/14 15/16/15
f 9/4/9 15/16/15 10/6/10
vt 0.3333330 0.6666670
f 10/6/10 15/16/15 16/17/16
f 10/6/10 16/17/16 11/8/11
vt 0.3333330 0.8333330
f 11/8/11 16/17/16 17/18/17
f 11/8/11 17/18/17 12/10/12
vt 0.3333330 1.0000000
f 12/10/12 17/18/17 7/19/7
vt 0.3333330 0.0000000
vt 0.5000000 0.1666670
f 1/20/1 18/21/18 13/14/13
vt 0.5000000 0.3333330
f 13/14/13 18/21/18 19/22/19
f 13/14/13 19/22/19 14/15/14
vt 0.5000000 0.5000000
f 14/15/14 19/22/19 20/23/20
f 14/15/14 20/23/20 15/16/15
vt 0.5000000 0.6666670
f 15/16/15 20/23/20 21/24/21
f 15/16/15 21/24/21 16/17/16
vt 0.5000000 0.8333330
f 16/17/16 21/24/21 22/25/22
f 16/17/16 22/25/22 17/18/17
vt 0.5000000 1.0000000
f 17/18/17 22/25/22 7/26/7
vt 0.5000000 0.0000000
vt 0.6666670 0.1666670
f 1/27/1 23/28/23 18/21/18
vt 0.6666670 0.3333330
f 18/21/18 23/28/23 24/29/24
f 18/21/18 24/29/24 19/22/19
vt 0.6666670 0.5000000
f 19/22/19 24/29/24 25/30/25
f 19/22/19 25/30/25 20/23/20
vt 0.6666670 0.6666670
f 20/23/20 25/30/25 26/31/26
f 20/23/20 26/31/26 21/24/21
vt 0.6666670 0.8333330
f 21/24/21 26/31/26 27/32/27
f 21/24/21 27/32/27 22/25/22
vt 0.6666670 1.0000000
f 22/25/22 27/32/27 7/33/7
vt 0.6666670 0.0000000
vt 0.8333330 0.1666670
f 1/34/1 28/35/28 23/28/23
vt 0.8333330 0.3333330
f 23/28/23 28/35/28 29/36/29
f 23/28/23 29/36/29 24/29/24
vt 0.8333330 0.5000000
f 24/29/24 29/36/29 30/37/30
f 24/29/24 30/37/30 25/30/25
vt 0.8333330 0.6666670
f 25/30/25 30/37/30 31/38/31
f 25/30/25 31/38/31 26/31/26
vt 0.8333330 0.8333330
f 26/31/26 31/38/31 32/39/32
f 26/31/26 32/39/32 27/32/27
vt 0.8333330 1.0000000
f 27/32/27 32/39/32 7/40/7
vt 0.8333330 0.0000000
vt 1.0000000 0.1666670
f 1/41/1 2/42/2 28/35/28
vt 1.0000000 0.3333330
f 28/35/28 2/42/2 3/43/3
f 28/35/28 3/43/3 29/36/29
vt 1.0000000 0.5000000
f 29/36/29 3/43/3 4/44/4
f 29/36/29 4/44/4 30/37/30
vt 1.0000000 0.6666670
f 30/37/30 4/44/4 5/45/5
f 30/37/30 5/45/5 31/38/31
vt 1.0000000 0.8333330
f 31/38/31 5/45/5 6/46/6
f 31/38/31 6/46/6 32/39/32
vt 1.0000000 1.0000000
f 32/39/32 6/46/6 7/47/7
# 60 faces, 47 coords texture

# End of File
